<svg xmlns="http://www.w3.org/2000/svg" viewBox="0 0 111.5 121"><path fill="#59595A" d="M78.9 54.4l-6.8-6.8L88 31.8 72.1 15.9l6.8-6.7 22.6 22.6M28.4 9.2l6.8 6.7-15.9 15.9 15.9 15.8-6.8 6.8L5.8 31.8"/><path fill="#FFF" d="M76.9 54.4l-6.8-6.8L86 31.8 70.1 15.9l6.8-6.7 22.6 22.6M26.4 9.2l6.8 6.7-15.9 15.9 15.9 15.8-6.8 6.8L3.8 31.8"/><path fill="#59595A" d="M44.4 111.5l-3.6-3.6 8.6-8.6-8.6-8.6 3.6-3.7 12.2 12.3M17.1 87l3.7 3.7-8.6 8.6 8.6 8.6-3.7 3.6L4.9 99.3"/><path fill="#FFF" d="M43.3 111.5l-3.6-3.6 8.6-8.6-8.6-8.6 3.6-3.7 12.3 12.3M16.1 87l3.6 3.7-8.6 8.6 8.6 8.6-3.6 3.6L3.8 99.3"/></svg>
