<svg xmlns="http://www.w3.org/2000/svg" viewBox="0 0 128.1 20.3"><g fill="#FFF"><path d="M15.7 5.4c-.2-.2-2.8-2.5-2.8-2.5-.4-.1-.8-.2-1.1-.2-1 0-1.7.6-1.7.6L7 6.3c-.2.2-.4.4-.4.5 0 .2.1.3.1.3l.8.8c.2.1.4.2.5.2.3 0 .5-.2.5-.2L11.4 5c.1-.1.2-.1.3-.1.3 0 .5.1.5.1s1.3 1.1 1.7 1.6c.3.4 0 1 0 1l-2.8 2.8c-.2.2-.3.3-.3.5 0 .1 0 .1.1.1 0 .1.2.5.8.9.2.1.4.2.6.2.3 0 .5-.2.5-.2S15.3 9.1 16 8c.8-1.1-.1-2.4-.3-2.6zm-5.1 7.8l-.8-.8c-.1-.1-.3-.2-.4-.2-.3 0-.5.2-.5.2L6 15.3c-.1.1-.2.1-.3.1-.2 0-.5-.1-.5-.1s-1.3-1.1-1.7-1.6c-.3-.4 0-1 0-1l2.8-2.8c.2-.2.3-.3.3-.5 0-.1 0-.1-.1-.1 0-.1-.2-.5-.8-.9-.2-.1-.4-.2-.6-.2-.3 0-.5.2-.5.2s-2.5 2.8-3.2 3.9c-.8 1.1.1 2.4.3 2.6.2.2 2.7 2.4 2.8 2.5.4.1.8.2 1.1.2 1 0 1.6-.5 1.7-.6l3.1-3.1c.2-.2.3-.3.3-.5.1-.1-.1-.2-.1-.2z"/><path d="M5.7 11.9c0 .1 0 .2.1.3l.9.8c.1.1.2.1.3.1.1 0 .2 0 .3-.1l4.5-4.5c.2-.2.2-.4 0-.6l-.9-.9c-.1-.1-.2-.1-.3-.1-.1 0-.2 0-.3.1l-4.5 4.5c0 .2-.1.3-.1.4z"/></g><path fill="#FFF" d="M46.9 1.8c1.8.5 3.2 2 3.7 3.8.5 1.9-.2 3.9-1.8 5.5L42 17.6c-.7.7-1.6 1-2.6 1h-.1c-1 0-1.9-.4-2.6-1.1l-.1-.1c-.7-.7-1.1-1.7-1-2.7 0-1 .4-1.9 1.2-2.6l5.8-5.6c.7-.7 1.4-1 2-1.1.7-.1 1.3.2 1.8.7.5.5.7 1.1.6 1.8-.1.7-.5 1.3-1.2 2l-5.2 5-1.1-1.2 5.2-5c.6-.5.7-.9.7-1.1 0-.1 0-.3-.2-.4-.2-.1-.3-.2-.5-.1-.2 0-.5.1-1.1.7l-5.8 5.6c-.4.4-.6.9-.7 1.5 0 .6.2 1.1.6 1.5l.1.1c.4.4.9.6 1.5.7.6 0 1.1-.2 1.5-.6l6.8-6.5C48.9 8.8 49.4 7.4 49 6c-.3-1.3-1.3-2.3-2.6-2.7-1.3-.4-2.8 0-4 1.2l-6.2 6-1.1-1.2 6.2-6c1.7-1.4 3.8-2 5.6-1.5z"/><g fill="#FFF"><path d="M78.3 17.6c-4.6 0-6.6-.6-6.7-.6-1.2-.3-2.1-1.6-2.1-2.8V6.1c0-1.3.9-2.5 2.1-2.8.1 0 2.1-.6 6.7-.6 4.7 0 6.6.6 6.7.6 1.2.4 2.1 1.6 2.1 2.8v8.2c0 1.3-.9 2.5-2.1 2.8-.1 0-2.2.5-6.7.5zm0-12.7c-4.3 0-6.1.5-6.1.5-.2.1-.5.4-.5.6v8.2c0 .2.3.6.5.6 0 0 1.9.5 6.1.5 4.2 0 6.1-.5 6.1-.5.2-.1.5-.4.5-.6V6.1c0-.2-.3-.6-.5-.6 0-.1-1.8-.6-6.1-.6z"/><path d="M76.1 14c-.4.2-.8 0-.8-.5V6.7c0-.5.4-.7.8-.5l6.1 3.4c.4.2.4.6 0 .9L76.1 14z"/></g><path fill="#FFF" d="M121.9 10l-1.7-4.7-3.2 9.8-3.1-15-3.2 9.8-1.5-3.6-2.6 4.8H104v1.4h3.4l1.7-3.1 1.8 4.3 2.7-8.4 3.1 14.8 3.6-10.7 1.4 4 2.6-5.4h2.6V6.7h-3.4"/></svg>
