<?xml version="1.0" encoding="utf-8"?>
<!-- Generator: Adobe Illustrator 21.0.0, SVG Export Plug-In . SVG Version: 6.00 Build 0)  -->
<svg version="1.1" id="Layer_1" xmlns="http://www.w3.org/2000/svg" xmlns:xlink="http://www.w3.org/1999/xlink" x="0px" y="0px"
	 width="354.6px" height="151.7px" viewBox="0 0 354.6 151.7" style="enable-background:new 0 0 354.6 151.7;" xml:space="preserve"
	>
<style type="text/css">
	.st0{fill:#FFF600;}
	.st1{fill:#FFFFFF;}
</style>
<rect x="3.4" y="115" class="st0" width="8.7" height="36.2"/>
<polygon class="st0" points="46.9,137.5 34.1,115 25.4,115 25.4,151.2 34.1,151.2 34.1,128.7 46.9,151.2 55.6,151.2 55.6,115 
	46.9,115 "/>
<polygon class="st0" points="65.7,121.7 76.4,121.7 76.4,151.2 85.1,151.2 85.1,121.7 96,121.7 96,115 65.7,115 "/>
<polygon class="st0" points="106.8,151.2 131.8,151.2 131.8,144.5 115.5,144.5 115.5,135.8 129.3,135.8 129.3,129.4 115.5,129.4 
	115.5,121.7 131.8,121.7 131.8,115 106.8,115 "/>
<path class="st0" d="M166.7,134.6c0.8-0.6,1.5-1.3,2-2.1c0.6-0.9,1-1.8,1.3-2.9c0.3-1.2,0.5-2.5,0.4-3.7c0-1.6-0.3-3.2-1-4.7
	c-0.6-1.3-1.6-2.5-2.8-3.4c-1.3-1-2.8-1.7-4.3-2.1c-1.8-0.5-3.8-0.7-5.7-0.7h-14.3v36.2h8.7v-12.8h4.7l6.4,12.8h9.3v-0.4l-7.6-14.6
	C165,135.8,165.9,135.3,166.7,134.6z M160.5,130.4c-1,0.9-2.4,1.4-3.8,1.3h-5.5v-9.9h5.5c1.4-0.1,2.7,0.4,3.7,1.3
	C162.1,125.2,162.1,128.2,160.5,130.4z"/>
<path class="st0" d="M193.3,115L180,151.2h9.3l2.1-6.8h12l2.1,6.8h9.4L201.5,115H193.3z M193.5,137.7l3.9-12.6l3.9,12.6H193.5z"/>
<polygon class="st0" points="219.8,121.7 230.5,121.7 230.5,151.2 239.2,151.2 239.2,121.7 250.1,121.7 250.1,115 219.8,115 "/>
<rect x="261.5" y="115" class="st0" width="8.7" height="36.2"/>
<polygon class="st0" points="297.5,141.3 290.3,115 280.6,115 292.7,151.2 302.3,151.2 314.5,115 304.7,115 "/>
<path class="st0" d="M353.4,124.9c-0.7-2.1-1.8-4-3.3-5.6c-1.4-1.5-3.1-2.7-5-3.6c-4.1-1.7-8.7-1.7-12.8,0c-1.9,0.8-3.6,2-5,3.6
	c-1.5,1.6-2.6,3.5-3.3,5.6c-0.8,2.4-1.2,4.9-1.2,7.5v1.5c0,2.5,0.4,5.1,1.2,7.5c0.7,2.1,1.8,4,3.3,5.6c1.4,1.5,3.1,2.7,5,3.5
	c2,0.8,4.2,1.3,6.4,1.2c2.2,0,4.3-0.4,6.4-1.2c1.9-0.8,3.6-2,5-3.5c1.5-1.6,2.6-3.5,3.3-5.6c0.8-2.4,1.2-4.9,1.2-7.5v-1.5
	C354.6,129.8,354.2,127.3,353.4,124.9z M345.7,133.8c0,3.6-0.6,6.3-1.8,8.2c-1.8,2.9-5.6,3.7-8.5,1.9c-0.8-0.5-1.4-1.1-1.9-1.9
	c-1.2-1.9-1.8-4.6-1.8-8.2v-1.5c0-3.6,0.6-6.3,1.7-8.2c1.9-2.9,5.8-3.7,8.6-1.8c0.7,0.5,1.3,1.1,1.8,1.8c1.2,1.9,1.8,4.6,1.8,8.2
	V133.8z"/>
<path class="st1" d="M39.3,77.2V9.4h11.9V1.3H14.3v8.1h15.1v67c0,16.4-14.9,16.5-29.4,17.1v8.7C19.1,101.6,39.3,99.9,39.3,77.2z"/>
<path class="st1" d="M108.7,102.2c41.3,0,42.6-24.8,42.6-39.4V39.4c0-14.6-1.3-39.4-42.6-39.4C67.1,0,65.9,24.7,65.9,39.2v23.7
	C65.9,77.5,67.1,102.2,108.7,102.2z M75.8,39.2c0-17.2,4.3-30.6,32.9-30.6c27.9,0,32.5,12.8,32.8,30.7v23.4v0
	c0,17.1-4.2,30.7-32.8,30.7c-27.3,0-32.9-12.9-32.9-30.6V39.2z"/>
<path class="st1" d="M248.2,93.1V53h-31v8.5h21.6v26.3c-7,3.5-16.4,5.6-26.1,5.6c-31.3-0.4-31.8-17-31.8-29.3V38
	c0-12.2,0.7-29.3,32.8-29.3c6.3,0,12.6,0.5,18.8,1.3v13.6l0,0h8.8v-21C232.2,0.9,223,0.1,213.7,0c-41.6,0-42.6,24.1-42.6,38v26.2
	c0,14,1,37.4,41.6,38C225.1,102.2,237.4,99.1,248.2,93.1z"/>
<path class="st1" d="M352.1,62.8V39.4v0c0-14.6-1.3-39.4-42.6-39.4c-41.6,0-42.8,24.7-42.8,39.2v23.7c0,14.6,1.1,39.2,42.8,39.2
	C350.8,102.2,352.1,77.4,352.1,62.8z M276.5,62.9V39.2c0-17.2,4.3-30.6,32.9-30.6c27.9,0,32.5,12.8,32.8,30.7v23.4v0
	c0,17.1-4.2,30.7-32.8,30.7C282.1,93.5,276.5,80.6,276.5,62.9z"/>
</svg>
