<?xml version="1.0" encoding="utf-8"?>
<!-- Generator: Adobe Illustrator 19.0.0, SVG Export Plug-In . SVG Version: 6.00 Build 0)  -->
<svg version="1.1" id="Layer_1" xmlns="http://www.w3.org/2000/svg" xmlns:xlink="http://www.w3.org/1999/xlink" x="0px" y="0px"
	 viewBox="-234 386.4 141.8 20.6" style="enable-background:new -234 386.4 141.8 20.6;" xml:space="preserve">
<style type="text/css">
	.st0{fill:#FFFFFF;}
</style>
<rect x="-212.2" y="386.5" class="st0" width="1.5" height="20.5"/>
<rect x="-228.3" y="396.3" class="st0" width="7.4" height="1.4"/>
<polygon class="st0" points="-234,386.5 -234,407 -232.5,407 -232.5,397.7 -232.5,397.7 -232.5,396.3 -232.5,396.3 -232.5,387.9 
	-216.7,387.9 -216.7,386.5 "/>
<path class="st0" d="M-164.9,386.5H-177V407h1.5v-7.6l0,0V398l0,0v-10h10.5c3.7,0,6.2,1.7,6.2,4.9v0.1c0,3-2.6,5-6.4,5h-4.8v1.4h4.7
	c4.3,0,8-2.2,8-6.5v-0.2C-157.3,388.8-160.4,386.5-164.9,386.5"/>
<polygon class="st0" points="-185.9,397.9 -193,386.4 -194.4,386.4 -207.1,407 -205.5,407 -193.7,388.1 -187.6,397.9 "/>
<polygon class="st0" points="-183.5,401.7 -185.2,401.7 -181.9,407 -180.2,407 "/>
<path class="st0" d="M-121.4,404.4h-26.3v-15.8h26.2c-3.6,1-6,4.1-6,7.9l0,0C-127.6,400.3-125.1,403.5-121.4,404.4z"/>
<path class="st0" d="M-119.1,401.4c-2.8,0-4.8-2.3-4.8-5l0,0c0-2.7,1.9-4.9,4.7-4.9c2.8,0,4.8,2.3,4.8,5l0,0
	C-114.4,399.2-116.3,401.4-119.1,401.4z"/>
<path class="st0" d="M-116.7,388.6h8v15.8h-8.3c3.7-0.9,6.2-4.1,6.2-7.9l0,0C-110.7,392.7-113.1,389.6-116.7,388.6z"/>
<polygon class="st0" points="-97.9,398.3 -105.3,388.6 -97.9,388.6 "/>
<polygon class="st0" points="-105.2,394.3 -97.5,404.4 -105.2,404.4 "/>
<rect x="-94.5" y="388.6" class="st0" width="2.3" height="15.8"/>
</svg>
