<?xml version="1.0" encoding="utf-8"?>
<!-- Generator: Adobe Illustrator 21.0.0, SVG Export Plug-In . SVG Version: 6.00 Build 0)  -->
<svg version="1.1" id="Layer_1" xmlns="http://www.w3.org/2000/svg" xmlns:xlink="http://www.w3.org/1999/xlink" x="0px" y="0px"
	 width="358.1px" height="168px" viewBox="0 0 358.1 168" style="enable-background:new 0 0 358.1 168;" xml:space="preserve">
<style type="text/css">
	.st0{fill:#FFF600;}
	.st1{fill:#FFFFFF;}
</style>
<g>
	<polygon class="st0" points="13.9,121.6 6.3,121.6 5.2,128.5 12.9,128.5 	"/>
	<path class="st0" d="M20.2,148.9c-1.3,2.6-2.8,5.2-4.4,7.6c-3,4.2-5.4,5.8-7,5.8c-0.8,0-1.4-0.5-1.4-1.8c0-0.5,0.2-1.7,0.6-4.3
		l3.7-23.4H5l-3.9,24.9c-0.3,1.8-0.5,3.5-0.5,5.3c0,3,1.8,5.1,5.3,5.1v0c4.6,0,8.6-2.7,12.9-8.6c1.9-2.8,3.6-5.7,5-8.7L20.2,148.9z"
		/>
</g>
<path class="st0" d="M23.7,167.2l2.2-13.7c1.6-10.2,7.1-15.4,11.2-15.4c2.7,0,3.7,1.6,3.7,4c-0.1,1.6-0.2,3.1-0.5,4.7l-1.7,10.7
	c-0.3,1.6-0.5,3.3-0.5,4.9c0,3.4,1.6,5.6,5.4,5.6c4.2,0,8.4-2.7,12.7-8.6c1.9-2.8,3.6-5.7,5-8.7l-3.7-1.8c-1.3,2.6-2.8,5.2-4.4,7.6
	c-2.9,4.1-5.4,5.8-6.7,5.8c-0.6,0-1.3-0.3-1.3-1.7c0-0.6,0.3-2.3,0.6-4.6l1.5-9.7c0.4-2.3,0.6-4.6,0.7-6.9c0-4-1.5-7.6-7.2-7.6
	c-5,0-9.8,3.7-12.9,9.5c0.4-1.8,0.7-3.6,0.9-4.6l0.6-4.1h-6.7L17,167.2L23.7,167.2L23.7,167.2z"/>
<path class="st0" d="M65.3,168c7.2,0,14.4-5,19.3-13.3c0.8-1.3,1.5-2.7,2.2-4.1l-3.7-1.8c-0.4,0.8-1,2-2.1,3.8
	c-3.7,5.8-8.5,9.6-13.5,9.6c-3.5,0-4.4-1.8-4.4-4.5c0.2-2.9,0.5-5.7,1-8.5l1.7-11.4h10.8l0.8-5.1H66.6l1.3-8.4h-6.7l-1.4,8.4h-4.2
	l-0.8,5.1H59L57.4,148c-0.7,3.6-1.1,7.3-1.2,11C56.1,164.6,58.9,168,65.3,168L65.3,168z"/>
<path class="st0" d="M116.7,148.9c-0.4,0.8-1,2-1.6,3.1c-3.6,6-9.4,10.7-18.5,10.7c-4.8,0-7.9-1.4-7.9-6.7v-1.7
	c1.2,0.1,2.4,0.1,3.7,0.1c5,0,8.4-1,10.9-2.5c4.2-2.7,5.6-8.3,5.6-11.4c0-5.9-4.5-8.4-10.3-8.4c-4.6,0-8.6,1.2-11.4,4.8
	c-3.7,4.5-5.2,13.5-5.2,19.4c0,8.2,4.9,11.9,12.7,11.9v0c12.2,0,19.7-6.4,24.2-13.9c0.7-1.2,1.3-2.4,1.8-3.4L116.7,148.9z
	 M92.5,139.7L92.5,139.7c1.2-1.8,3.3-2.9,5.4-2.9c2.3,0,4.3,1.2,4.3,4c0,1.8-0.8,5.6-3.2,7.7c-1.6,1.4-4,1.9-6.8,1.9
	c-1,0-2.1-0.1-3.1-0.1C89.6,146.5,90.7,142.2,92.5,139.7z"/>
<path class="st0" d="M132.1,168c5.2,0,9.1-2.7,13.3-8.6c1.9-2.8,3.6-5.7,5-8.7l-3.7-1.8c-1.3,2.6-2.8,5.2-4.4,7.6
	c-2.9,4.1-5.4,5.8-6.9,5.8c-0.9,0-1.4-0.5-1.4-1.7c0-0.5,0.3-2.9,1.3-8.4c0.9-5.6,1.3-7.3,1.3-8.2c0-1.9-0.2-2.9-3-4.5l-4.4-2.4
	c-1-0.5-1.6-1.5-1.6-2.6c0.1-1.1,0.2-2.2,0.5-3.3l-5.8-1.3c-1.1,5.1-2.5,10.1-4.2,15c-0.4,1.2-1.1,2.7-1.6,3.9l3.7,1.8
	c0.7-1.4,1.4-3.1,2-4.7c0.5-1.4,1.1-2.9,1.6-4.3c0.1,0.1,0.3,0.2,3.8,2.1c1.6,0.9,1.8,1.3,1.8,2.2c-0.2,2.6-0.6,5.2-1.2,7.7
	c-1.2,6.2-1.4,8.1-1.4,9.2C127,166.2,128.9,168,132.1,168L132.1,168z"/>
<path class="st0" d="M184.4,148.9c-1.3,2.7-2.8,5.2-4.5,7.6c-3.1,4.2-5.3,5.8-6.9,5.8c-0.8,0-1.4-0.4-1.4-1.7c0-0.9,0.4-3.1,0.6-4.4
	l3.7-23.4h-5.2l-1.4,2.9c-1.9-2.2-5.1-3.7-9.3-3.7c-3.8-0.1-7.3,1.8-9.5,4.9c-3.5,5-5.1,15.3-5.1,21.6c0,6.5,2.4,9.7,7.8,9.7l0,0
	c4.3,0,8.6-2.7,11.7-7.2c-0.1,0.8-0.1,1.6-0.1,2.4c0,2.8,1.7,4.8,5.2,4.8c4.6,0,8.7-2.7,13-8.6c1.9-2.8,3.6-5.7,5-8.7L184.4,148.9z
	 M166.5,149.2c-0.4,3-1.5,5.9-3.3,8.4l0,0c-2.4,3.4-5.1,5.2-7.3,5.2c-2,0-3.7-0.7-3.7-5.6c0-3.8,1.3-13,3.9-16.9
	c1.1-2.1,3.3-3.3,5.7-3.3c3.1,0,5.1,1,6.3,2.5L166.5,149.2z"/>
<path class="st0" d="M192.3,168c7.2,0,14.4-5,19.3-13.3c0.8-1.3,1.5-2.7,2.2-4.1l-3.7-1.8c-0.4,0.8-1,2-2.1,3.8
	c-3.7,5.8-8.5,9.6-13.5,9.6c-3.5,0-4.4-1.8-4.4-4.5c0.2-2.9,0.5-5.7,1-8.5l1.7-11.4h10.8l0.8-5.1h-10.8l1.3-8.4h-6.7l-1.4,8.4h-4.2
	l-0.8,5.1h4.2l-1.6,10.2c-0.7,3.6-1.1,7.3-1.2,11C183.1,164.6,185.8,168,192.3,168L192.3,168z"/>
<g>
	<polygon class="st0" points="221.2,121.6 213.6,121.6 212.5,128.5 220.1,128.5 	"/>
	<path class="st0" d="M227.4,148.9c-1.3,2.6-2.8,5.2-4.4,7.6c-3,4.2-5.4,5.8-7,5.8c-0.8,0-1.4-0.5-1.4-1.8c0-0.5,0.2-1.7,0.6-4.3
		l3.7-23.4h-6.7l-3.9,24.9c-0.3,1.8-0.5,3.5-0.5,5.3c0,3,1.8,5.1,5.3,5.1l0,0c4.6,0,8.6-2.7,12.9-8.6c1.9-2.8,3.6-5.7,5-8.7
		L227.4,148.9z"/>
</g>
<path class="st0" d="M264.8,148.9c-0.4,0.8-0.8,1.6-1.4,2.6c-2.7,4.7-6.5,6.4-10.4,6.4c-0.8,0-1.6,0-2.4-0.2
	c3.3-5.4,5.1-11.7,5.3-18c0-6-3.1-7.7-6.1-7.7c-8.1,0-10.6,9.5-10.6,16.9c-0.1,3.8,1.3,7.4,3.8,10.2c-1.6,1.7-4.3,3.7-7.2,3.7
	c-2.2,0-3.3-1.1-3.3-3.7c0.1-2.4,0.4-4.8,0.8-7.1l3.1-19.1h-6.8l-2.7,16.9c-0.9,6.1-1.2,7.8-1.2,9.9c0,5.7,3.4,8.4,8.7,8.4l0,0
	c5,0,9.1-1.9,13-6.2c1.5,0.5,3.2,0.7,4.8,0.7c6,0.1,11.6-3.1,14.4-8.4c0.7-1.1,1.2-2.2,1.8-3.4L264.8,148.9z M246.4,154.7
	c-1.1-2-1.6-4.3-1.4-6.5l0,0c0-4.9,1.8-11.3,4.2-11.3c0.8,0,1.4,0.7,1.4,3.4C250.2,145.3,248.8,150.3,246.4,154.7z"/>
<path class="st0" d="M302.5,148.9c-0.6,1.2-1.2,2.4-2,3.5c-2,3.3-5.5,5.3-9.3,5.4c1.5-4.9,2.3-9.9,2.3-15c0-8-4.8-11-13.1-11
	c-5.4,0-9.6,1.7-12.3,5.5c-2.9,4.1-4.5,13.6-4.5,19.7c0,7.9,4.8,10.9,13.1,10.9c5.4,0,9.7-1.7,12.3-5.5h0.9c5.4,0,10.1-1.8,14-7.8
	c0.8-1.3,1.6-2.7,2.2-4.1l0,0L302.5,148.9z M278.2,153.5c0,3.9,1.8,6.5,4.2,7.3c-1.4,1.5-3.4,2.3-5.5,2.2c-3.8,0-6.4-1.6-6.4-6.4
	c0-4.3,1.1-12.1,3.2-16c1.3-2.4,3.9-3.8,6.7-3.6c1.7-0.1,3.4,0.4,4.7,1.5c-1.6,0.8-2.9,2.1-3.9,3.5
	C279.3,145.6,278.3,149.5,278.2,153.5L278.2,153.5z M284.9,155.9c-0.8-0.5-1.2-1.4-1.2-3c0-3.5,0.9-8.8,3.1-10.3l0,0
	C286.7,147.1,286.1,151.5,284.9,155.9z"/>
<g>
	<path class="st1" d="M11.9,17.4h14.4v56.1c0,10.2-10.9,10.5-26.4,10.9v17.8c22.8-0.6,47.8-2,47.8-27.3V17.4v0H59V1.3H11.9V17.4z"/>
	<path class="st1" d="M133.6,2.1C127.4,0.7,121.1,0,114.7,0c-6.4,0-12.7,0.7-18.9,2.1C71.5,8.1,71,28.2,71,39.7v22.8
		C71,74,71.5,94,95.8,100.1c6.2,1.4,12.6,2.1,18.9,2.1c6.4,0,12.7-0.7,18.9-2.1c24.2-6,24.8-26.2,24.8-37.7V39.8v0
		C158.5,28.3,157.9,8.1,133.6,2.1z M137,62.4c0,17.2-6.6,22.3-22.3,22.3c-13.7,0-22.3-2.9-22.3-22.1V39.7v0
		c0-19.2,8.6-22.1,22.3-22.1c15.7,0,22.3,5,22.3,22.3V62.4z"/>
	<path class="st1" d="M215.9,63.3h19.5v17.9c-5.9,2.1-12.1,3.2-18.4,3.4c-3.5-0.1-7.1-0.6-10.5-1.4c-10.4-2.7-11.2-14-11.2-20.5
		V38.5c0.6-21.3,15.6-21,27.6-21c1.8,0,4.3,0,7.2,0.1v11.5H249V2.9c-9.8-2-19.8-3-29.9-2.9c-5.9-0.1-11.9,0.5-17.7,1.8
		c-26.9,6.3-27.6,25.6-27.6,37.4v23.5c0,11.6,1.7,30.8,27.6,37.4c5,1.1,10.1,1.8,15.3,2c12.9,0.1,25.5-3.2,36.7-9.5l2.2-1.4V47.5
		h-39.8V63.3z"/>
	<polygon class="st1" points="230.1,29.1 230.1,29.1 230.1,29.1 	"/>
	<path class="st1" d="M333.3,2.1c-12.5-2.8-25.4-2.8-37.8,0c-24.2,6-24.8,26.1-24.8,37.6v22.8c0,11.5,0.6,31.5,24.8,37.6
		c12.5,2.8,25.4,2.8,37.8,0c24.2-6,24.8-26.2,24.8-37.7V39.8v0C358.1,28.3,357.5,8.1,333.3,2.1z M336.7,62.4
		c0,17.2-6.6,22.3-22.3,22.3c-13.7,0-22.3-2.9-22.3-22.1V39.7v0c0-19.2,8.6-22.1,22.3-22.1c15.7,0,22.3,5,22.3,22.3V62.4z"/>
</g>
</svg>
