<?xml version="1.0" encoding="utf-8"?>
<!-- Generator: Adobe Illustrator 18.1.1, SVG Export Plug-In . SVG Version: 6.00 Build 0)  -->
<svg version="1.1" id="Layer_1" xmlns="http://www.w3.org/2000/svg" xmlns:xlink="http://www.w3.org/1999/xlink" x="0px" y="0px"
	 viewBox="0 0 50 154.4" enable-background="new 0 0 50 154.4" xml:space="preserve">
<g>
	<circle fill="#293B75" cx="25" cy="24.6" r="23.5"/>
	<path fill="#FFFFFF" d="M37.1,23.2c0.1-0.2,0.1-0.7,0.1-1.5v-0.2c0-1.9-1.5-3.3-3.4-3.3h-7.4c-1.9,0-3.3,1.5-3.3,3.3v0.2
		c0,0.6,0.1,1,0.3,1.5c-1,0.6-1.6,1.6-1.6,2.8v0.2c0,1.4,1,2.6,2.1,3c-0.1,0.3-0.2,0.8-0.2,1.3v0.2c0,1.2,0.6,2.2,1.5,2.8
		c-0.1,0.3-0.2,0.8-0.2,1.3V35c0,0.2,0,0.5,0.1,0.7h-2.5c-1.5-0.1-3.9-0.7-7.8-3v-9.8c1.8-1,6.9-4.6,7.7-9.8c0.1-0.8,0.6-1.9,1-1.9
		c0.4,0,0.8,0.7,1,1c0,0,0.6,1.8,0.6,3.2c0,0.3-0.1,0.8-0.3,1.4c0.6-0.2,1.2-0.3,1.8-0.3h0.6c0.1-0.3,0.1-0.7,0.1-1
		c0-1.9-0.7-3.9-0.7-4c-0.3-0.8-1.4-2.5-3.2-2.5c-2.2,0-3,2.8-3.2,3.9c-0.7,5.2-6.9,8.5-7.1,8.5l-0.6,0.3v12.4c0,0,6.9,3.6,9.6,4
		c0.2,0,4,0.1,5.6,0.1h1.9c1.8,0,3.3-1.3,3.3-2.9v-0.1c0-0.2,0-0.5-0.1-0.7c1.8-0.1,3.2-1.5,3.2-3.3V31c0-0.3,0-0.7-0.1-1v-0.1
		c1.6-0.1,3-1.5,3-3.3v-0.3C38.9,24.8,38.2,23.8,37.1,23.2z M25.3,21.5c0-0.6,0.6-1,1.3-1H34c0.7,0,1.3,0.5,1.3,1v0.2
		c0,0.6-0.6,1-1.3,1h-7.4c-0.7,0-1.3-0.5-1.3-1V21.5z M30.7,35.1c0,0.3-0.5,0.7-1,0.7h-1.6c-0.6,0-1-0.3-1-0.7V35
		c0-0.3,0.5-0.7,1-0.7h1.5c0.6,0,1,0.3,1,0.7L30.7,35.1L30.7,35.1z M33.8,30.8c0,0.6-0.6,1-1.3,1H27c-0.7,0-1.3-0.5-1.3-1v-0.2
		c0-0.6,0.6-1,1.3-1h5.5c0.7,0,1.3,0.5,1.3,1V30.8z M36.7,26.3c0,0.6-0.6,1-1.3,1H25.2c-0.7,0-1.3-0.5-1.3-1V26c0-0.6,0.6-1,1.3-1
		h10.3c0.7,0,1.3,0.5,1.3,1L36.7,26.3L36.7,26.3z"/>
	<circle fill="#293B75" cx="25" cy="129.4" r="23.5"/>
	<path fill="#FFFFFF" d="M39,128.5v-0.3c0-1.7-1.4-3.2-3-3.3v-0.1c0.1-0.3,0.1-0.6,0.1-1v-0.2c0-1.7-1.4-3.2-3.2-3.3
		c0.1-0.2,0.1-0.5,0.1-0.7v-0.1c0-1.6-1.5-2.9-3.3-2.9h-1.9c-1.7,0-5.4,0.1-5.6,0.1c-2.7,0.3-9.6,4-9.6,4v12.4l0.6,0.3
		c0.1,0.1,6.4,3.4,7.1,8.5c0.1,1.1,0.9,3.9,3.2,3.9c1.7,0,2.8-1.6,3.2-2.5c0-0.1,0.7-2.1,0.7-4c0-0.3,0-0.7-0.1-1h-0.6
		c-0.6,0-1.2-0.1-1.8-0.3c0.2,0.6,0.3,1.1,0.3,1.4c0,1.4-0.6,3.2-0.6,3.2c-0.1,0.3-0.5,1-1,1c-0.4,0-0.9-1.1-1-1.9
		c-0.7-5.3-5.9-8.8-7.7-9.8v-9.8c3.9-2.3,6.2-2.9,7.8-3h2.5c-0.1,0.2-0.1,0.5-0.1,0.7v0.1c0,0.5,0.1,1,0.2,1.3
		c-0.9,0.6-1.5,1.7-1.5,2.8v0.2c0,0.5,0.1,1,0.2,1.3c-1.2,0.4-2.1,1.6-2.1,3v0.2c0,1.2,0.6,2.2,1.6,2.8c-0.2,0.5-0.3,0.9-0.3,1.5
		v0.2c0,1.7,1.4,3.3,3.3,3.3h7.4c1.9,0,3.4-1.4,3.4-3.3v-0.2c0-0.8,0-1.3-0.1-1.5C38.2,131.1,38.9,130,39,128.5z M25.3,133.1
		c0-0.6,0.6-1,1.3-1H34c0.7,0,1.3,0.4,1.3,1v0.2c0,0.6-0.6,1-1.3,1h-7.4c-0.7,0-1.3-0.4-1.3-1V133.1z M30.7,119.8l0,0.1
		c0,0.4-0.4,0.7-1,0.7h-1.5c-0.6,0-1-0.4-1-0.7v-0.1c0-0.4,0.4-0.7,1-0.7h1.6C30.2,119.1,30.7,119.5,30.7,119.8L30.7,119.8z
		 M33.8,124.3c0,0.6-0.6,1-1.3,1H27c-0.7,0-1.3-0.4-1.3-1V124c0-0.6,0.6-1,1.3-1h5.5c0.7,0,1.3,0.4,1.3,1V124.3z M36.8,128.6v0.2
		c0,0.6-0.6,1-1.3,1H25.2c-0.7,0-1.3-0.4-1.3-1v-0.2c0-0.6,0.6-1,1.3-1h10.2C36.1,127.6,36.7,128,36.8,128.6L36.8,128.6z"/>
</g>
</svg>
