<?xml version="1.0" encoding="utf-8"?>
<!-- Generator: Adobe Illustrator 21.0.0, SVG Export Plug-In . SVG Version: 6.00 Build 0)  -->
<svg version="1.1" id="Layer_1" xmlns="http://www.w3.org/2000/svg" xmlns:xlink="http://www.w3.org/1999/xlink" x="0px" y="0px"
	 width="374.7px" height="143px" viewBox="0 0 374.7 143" style="enable-background:new 0 0 374.7 143;" xml:space="preserve">
<style type="text/css">
	.st0{fill:#FFF600;}
</style>
<rect x="1.8" y="107.4" class="st0" width="4" height="35"/>
<polygon class="st0" points="41.8,135.5 19.7,107.4 16,107.4 16,142.4 19.9,142.4 19.9,113.7 42.5,142.4 45.6,142.4 45.6,107.4 
	41.8,107.4 "/>
<polygon class="st0" points="53,111.1 64.8,111.1 64.8,142.4 68.8,142.4 68.8,111.1 80.6,111.1 80.6,107.4 53,107.4 "/>
<polygon class="st0" points="91.9,126.6 111,126.6 111,123 91.9,123 91.9,111 113.3,111 113.3,107.4 113.3,107.4 87.9,107.4 
	87.9,142.4 113.5,142.4 113.5,138.8 91.9,138.8 "/>
<path class="st0" d="M149.2,117.9c0-6.3-5-10.5-12.7-10.5h-15.1v35h4v-13.6h10l10.2,13.6h4.9l-10.8-14.3
	C145.2,127.1,149.2,123.7,149.2,117.9z M125.4,125.3v-14.2h10.8c5.7,0,9,2.6,9,7l0,0c0,4.6-3.8,7.3-9,7.3H125.4z"/>
<path class="st0" d="M170.6,107.2l-16,35.3h4.1l4.2-9.3h19.1l4.1,9.3h4.3l-16-35.3H170.6z M164.4,129.6l8-17.9l8,17.9H164.4z"/>
<polygon class="st0" points="190.1,111.1 201.9,111.1 201.9,142.4 205.9,142.4 205.9,111.1 217.6,111.1 217.6,107.4 190.1,107.4 "/>
<polygon class="st0" points="225.4,107.4 225.4,142.4 229.3,142.4 229.3,107.4 225.4,107.4 "/>
<polygon class="st0" points="253.4,137.6 241,107.4 236.6,107.4 251.6,142.7 255.1,142.7 270.2,107.4 266,107.4 "/>
<path class="st0" d="M291.4,106.8c-10.7,0-17.9,8.5-17.9,18.2c0,9.7,7.2,18.1,17.8,18.1s17.9-8.5,17.9-18.2l0,0
	C309.2,115.2,302.1,106.8,291.4,106.8z M305.1,125c0,8-5.7,14.4-13.7,14.4s-13.8-6.5-13.8-14.5s5.7-14.4,13.7-14.4
	S305.1,117,305.1,125L305.1,125z"/>
<path class="st0" d="M31.2,92.1c10.2,0,18.5-3.2,24.4-9c6-6,8.8-13.8,8.8-25V1.8H39.9V58c0,8.2-3.9,12.4-10.2,12.4
	c-5.5,0-9.5-3-13.8-8.2L0,77.2C6.2,85.7,15.7,92.1,31.2,92.1z"/>
<path class="st0" d="M123.6,92.4L123.6,92.4c27.4,0,48-20.7,48-46.2v-0.3c0-25.5-20.3-45.9-47.7-45.9s-48,20.7-48,46.2v0.3
	C75.9,72,96.2,92.4,123.6,92.4z M101.2,45.9c0-12.8,9-23.7,22.5-23.7c13.6,0,22.9,11.2,22.9,24v0.3c0,12.8-9,23.7-22.6,23.7l0,0
	c-13.5,0-22.7-11.2-22.7-24V45.9z"/>
<path class="st0" d="M268.3,78.7v-40h-40.9v18H245v10.8c-3.7,2.4-8.3,3.7-14.2,3.7c-14.1,0-24.1-10.3-24.1-24.6v-0.3
	c0-13.6,9.9-24.4,22.7-24.4c8.8,0,15.1,3,21.5,8.4l14.5-17.4C255.9,4.8,244.8,0,229.2,0c-27.5,0-47.9,20.3-47.9,46.2v0.3
	c0,26.9,20.7,45.9,48.4,45.9l0,0C243.8,92.5,257.5,87.6,268.3,78.7z"/>
<path class="st0" d="M327,0c-27.4,0-48,20.7-48,46.2v0.3c0,25.5,20.3,45.9,47.7,45.9l0,0c27.4,0,48-20.7,48-46.2v-0.3
	C374.7,20.4,354.4,0,327,0z M349.6,46.5c0,12.8-9,23.7-22.6,23.7l0,0c-13.5,0-22.7-11.2-22.7-24v-0.3c0-12.8,9-23.7,22.5-23.7
	c13.6,0,22.8,11.2,22.8,24V46.5z"/>
</svg>
