<?xml version="1.0" encoding="utf-8"?>
<!-- Generator: Adobe Illustrator 21.0.0, SVG Export Plug-In . SVG Version: 6.00 Build 0)  -->
<svg version="1.1" id="Layer_1" xmlns="http://www.w3.org/2000/svg" xmlns:xlink="http://www.w3.org/1999/xlink" x="0px" y="0px"
	 width="462.9px" height="205.8px" viewBox="0 0 462.9 205.8" style="enable-background:new 0 0 462.9 205.8;" xml:space="preserve"
	>
<style type="text/css">
	.st0{fill:#00EAFF;}
	.st1{fill:#FFFFFF;}
</style>
<path class="st0" d="M19.6,28.2H35v62.8c0,10.6-9.5,11.9-31.1,12.5l-1.1,0v29.8l1.2,0c28.7-0.6,67.9-1.5,67.9-37.4V28.2h14.3V1.6
	H19.6V28.2z M21.9,3.9h62v21.9H69.5v69.9c0,30.7-30.4,34.3-64.5,35.1v-25.2c18.1-0.5,32.2-1.1,32.2-14.8V25.9H21.9V3.9z"/>
<g>
	<path class="st0" d="M200.4,19.2C191.5,6.5,174.6,0,150.2,0s-41.4,6.4-50.2,19.1c-7.9,11.3-7.9,25.4-7.9,33V81
		c0,7.6,0,21.8,7.9,33.1c8.8,12.6,25.7,19,50.2,19l0,0c24.5,0,41.4-6.5,50.2-19.2c7.9-11.3,7.9-25.5,7.9-33.1V52.3
		C208.2,44.7,208.2,30.5,200.4,19.2z M205.9,80.9c0,16.2,0,50-55.8,50S94.4,97.2,94.4,81V52.1c0-16.2,0-49.8,55.8-49.8l0,0
		c55.8,0,55.8,33.8,55.8,50V80.9z"/>
	<path class="st0" d="M150.2,27.5C127,27.5,127,44.8,127,52.1V81c0,7.4,0,24.7,23.2,24.7l0,0c23.2,0,23.2-17.4,23.2-24.8V52.3
		C173.3,44.9,173.3,27.5,150.2,27.5z M171,80.9c0,7.9,0,22.5-20.9,22.5S129.3,88.9,129.3,81V52.1c0-7.8,0-22.4,20.9-22.4l0,0
		c20.9,0,20.9,14.7,20.9,22.5V80.9z"/>
</g>
<path class="st0" d="M271.1,84.3h23.5v15.5c-4.4,2.2-9.2,3.3-14.1,3.3c-23.9,0-23.9-13.6-23.9-20.9V50.9c0-9.9,0-21.1,27.8-21.1
	c1.7,0,3.3,0.1,4.9,0.4V44h32.4V3.4l-0.9-0.2C309.5,1.2,294.4,0,278.2,0c-24.3,0-41.2,6.6-50.3,19.6c-7.1,10.2-8.1,22-8.1,32.2v29.6
	c0,14.2,0,51.8,58.1,51.8c20.8,0,37.5-5,52.6-15.7l0.5-0.3V56h-59.8V84.3z M273.4,58.3h55.2V116c-14.5,10.2-30.7,14.9-50.8,14.9
	c-23.5,0-39.7-6.3-48.3-18.6c-7.5-10.9-7.5-24.4-7.5-30.8V51.8c0-13.5,0-49.5,56.1-49.5c15.7,0,30.3,1.1,41.3,3v36.3h-27.8V28.2
	l-1-0.2c-2.1-0.3-4.2-0.5-6.3-0.6c-30.1,0-30.1,13.5-30.1,23.4v31.4c0,7,0,23.2,26.2,23.2c5.5,0,10.9-1.4,15.7-3.9l0.6-0.3V82h-23.5
	V58.3z"/>
<g>
	<path class="st0" d="M449.9,19.2C441.1,6.5,424.2,0,399.7,0s-41.4,6.4-50.2,19.1c-7.9,11.3-7.9,25.4-7.9,33V81
		c0,7.6,0,21.8,7.9,33.1c8.8,12.6,25.7,19,50.2,19c24.5,0,41.4-6.5,50.2-19.2c7.9-11.3,7.9-25.5,7.9-33.1V52.3
		C457.8,44.7,457.8,30.5,449.9,19.2z M455.5,80.9c0,16.2,0,50-55.8,50S343.9,97.2,343.9,81V52.1c0-16.2,0-49.8,55.8-49.8
		c55.8,0,55.8,33.8,55.8,50V80.9z"/>
	<path class="st0" d="M399.7,27.5c-23.2,0-23.2,17.3-23.2,24.7V81c0,7.4,0,24.7,23.2,24.7c23.2,0,23.2-17.4,23.2-24.8V52.3
		C422.9,44.9,422.9,27.5,399.7,27.5z M420.6,80.9c0,7.9,0,22.5-20.9,22.5S378.8,88.9,378.8,81V52.1c0-7.8,0-22.4,20.9-22.4v0
		c20.9,0,20.9,14.7,20.9,22.5V80.9z"/>
</g>
<polygon class="st1" points="0,160.7 6.3,160.7 6.3,201.2 0,201.2 0,205.1 0,205.1 17.3,205.1 17.3,201.2 11,201.2 11,160.7 
	17.3,160.7 17.3,156.8 0,156.8 "/>
<polygon class="st1" points="59.7,160.7 65.9,160.7 65.9,197.9 65.8,197.9 42.1,156.8 29.8,156.8 29.8,160.7 36,160.7 36,201.2 
	29.8,201.2 29.8,205.1 47.1,205.1 47.1,201.2 40.8,201.2 40.8,163.6 40.9,163.6 65.1,205.1 70.7,205.1 70.7,160.7 76.9,160.7 
	76.9,156.8 59.7,156.8 "/>
<polygon class="st1" points="87.8,168.7 92.1,168.7 92.1,161 104.5,161 104.5,201.2 98.2,201.2 98.2,205.1 98.2,205.1 115.5,205.1 
	115.5,201.2 109.3,201.2 109.3,161 121.5,161 121.5,168.7 125.8,168.7 125.8,156.8 87.8,156.8 "/>
<polygon class="st1" points="171.7,166.8 171.7,166.8 171.7,166.8 "/>
<polygon class="st1" points="168.4,200.9 148.3,200.9 148.3,183.3 167.2,183.3 167.2,179.1 148.3,179.1 148.3,161 167.3,161 
	167.3,166.8 171.7,166.8 171.7,156.8 137.3,156.8 137.3,160.7 143.6,160.7 143.6,201.2 137.3,201.2 137.3,205.1 172.8,205.1 
	172.8,194.8 168.4,194.8 "/>
<path class="st1" d="M210.3,186c8.6-0.1,14-2.3,14-14.7c0-12.9-5.7-14.6-14.8-14.6h-24.3v3.9h6.3v40.5h-6.3v3.9h17.3v-3.9h-6.3V186
	h8.9l13,19.1h7.6v-3.9h-4.6L210.3,186z M196.2,181.9L196.2,181.9l0-21h13.5c6.1,0,9.7,1.2,9.7,10.3s-3.7,10.6-9.7,10.6H196.2z"/>
<path class="st1" d="M278.2,201.2L262,156.8h-6l-16.4,44.4h-4.9v3.9h15.4v-3.9h-5.5l4.2-11.7H269l4.3,11.7h-5.5v3.9h15.4v-3.9H278.2
	z M250.3,185.2l8.5-23.5h0.1l8.5,23.5H250.3z"/>
<polygon class="st1" points="287.8,168.7 292.1,168.7 292.1,161 304.5,161 304.5,201.2 298.2,201.2 298.2,205.1 298.2,205.1 
	315.5,205.1 315.5,201.2 309.2,201.2 309.2,161 321.5,161 321.5,168.7 325.7,168.7 325.7,156.8 287.8,156.8 "/>
<polygon class="st1" points="337.3,160.7 343.5,160.7 343.5,201.2 337.3,201.2 337.3,205.1 337.3,205.1 354.5,205.1 354.5,201.2 
	348.3,201.2 348.3,160.7 354.5,160.7 354.5,156.8 337.3,156.8 "/>
<polygon class="st1" points="395.8,160.7 401.3,160.7 388.1,199 387.9,199 374.6,160.7 380.2,160.7 380.2,156.8 364.6,156.8 
	364.6,160.7 369.5,160.7 385.3,205.1 390.6,205.1 406.4,160.7 411.3,160.7 411.3,156.8 395.8,156.8 "/>
<path class="st1" d="M442.2,156.1c-20.2,0-20.8,12-20.8,19v11.5c0,7.1,0.5,19,20.8,19c20.1,0,20.7-12,20.7-19.1v-11.4
	C462.9,168.2,462.3,156.1,442.2,156.1z M458.1,186.6c0,8.3-2,14.9-15.9,14.9c-13.3,0-16-6.3-16-14.8v-11.5c0-8.4,2.1-14.8,16-14.8
	c13.5,0,15.8,6.2,15.9,14.9V186.6z"/>
</svg>
