<?xml version="1.0" encoding="utf-8"?>
<!-- Generator: Adobe Illustrator 21.0.0, SVG Export Plug-In . SVG Version: 6.00 Build 0)  -->
<svg version="1.1" id="Layer_1" xmlns="http://www.w3.org/2000/svg" xmlns:xlink="http://www.w3.org/1999/xlink" x="0px" y="0px"
	 width="468px" height="184.4px" viewBox="0 0 468 184.4" style="enable-background:new 0 0 468 184.4;" xml:space="preserve">
<style type="text/css">
	.st0{fill:#FF0066;}
</style>
<path id="interativo" class="st0" d="M83,5.7V2.4c-6.2,0.3-15,0.5-26.3,0.5c-11.5,0-20-0.2-25.5-0.5v3.4c2.8,0,5.5,0.4,8.1,1.3
	c1.7,0.7,3,2.1,3.5,3.9c0.8,3,1.1,6.1,0.9,9.2v76.6c0,8.8-0.1,15.4-0.2,19.8c-0.1,3.8-0.4,7.7-0.9,11.5c-0.4,3.1-1.2,6.2-2.2,9.2
	c-1.2,3.5-3.4,6.5-6.4,8.8c-3.1,2.2-6.8,3.4-10.6,3.3c-2.9,0-5-0.4-6.1-1.1c2.5-0.8,4.8-2.3,6.4-4.3c1.5-1.9,2.2-4.3,2.2-6.7
	c0-3.5-1.1-6.3-3.4-8.2c-2.3-1.9-5.4-2.9-9.3-2.9c-4,0-7.3,1-9.7,3.1c-2.4,2.1-3.8,5.1-3.7,8.3c0,5.3,2.8,9.3,8.3,12
	c4.2,2.1,9.8,3.2,16.9,3.2c6.8,0.1,13.5-1.1,19.8-3.6c5.5-2.1,10.5-5.5,14.6-9.7c3.8-4,6.5-8.8,8.1-14c1.3-4.6,2.1-9.4,2.3-14.2
	c0.4-5.5,0.5-12,0.5-19.5V20.1C70.3,17,70.6,14,71.4,11c0.5-1.8,1.7-3.2,3.4-3.9C77.4,6.1,80.2,5.7,83,5.7L83,5.7L83,5.7z M152.8,0
	C141.3,0,131,2.6,122,7.8c-9,5.2-16.3,12.9-21,22.1c-5,9.5-7.5,20.4-7.5,32.7c0,12.6,2.4,23.5,7.3,32.6c4.6,8.9,11.9,16.2,20.7,20.9
	c8.9,4.8,19.3,7.2,31.1,7.2c11.5,0,21.7-2.6,30.7-7.9c9-5.2,16.3-12.9,21.1-22.1c5-9.5,7.6-20.4,7.6-32.7c0-12.6-2.5-23.5-7.4-32.6
	c-4.7-8.9-11.9-16.2-20.7-20.9C174.9,2.4,164.6,0,152.8,0L152.8,0L152.8,0z M152.1,3c5.9,0,11.3,2.4,16.2,7.2
	c4.9,4.8,8.7,11.6,11.6,20.5c2.8,8.9,4.3,19.1,4.3,30.6c0.2,10.3-1.1,20.7-3.8,30.6c-2.5,8.9-6.1,15.9-10.8,20.9
	c-4.7,5-10.1,7.5-16.2,7.5c-5.9,0-11.3-2.4-16.2-7.2c-4.9-4.8-8.7-11.6-11.5-20.5c-2.8-8.8-4.3-19.1-4.3-30.7
	c-0.2-10.3,1.1-20.7,3.8-30.6c2.5-8.9,6.1-15.9,10.8-20.9C140.6,5.5,146,3,152.1,3L152.1,3L152.1,3z M327.6,121h3.4V87.8
	c-0.1-3.1,0.1-6.2,0.6-9.2c0.2-1.5,0.9-2.9,2-3.8c1.5-0.8,3.2-1.3,4.9-1.4V70c-4.6,0.4-12.1,0.6-22.4,0.6c-12.7,0-22.2-0.2-28.6-0.6
	v3.4c5,0.2,8.6,0.8,10.8,1.7c2.2,0.9,4,2.7,4.7,5c0.9,2.4,1.3,6.3,1.3,11.5v16.4c0.1,1.8-0.2,3.6-0.9,5.2c-0.7,1.4-1.8,2.7-3.1,3.5
	c-3.1,2.2-7,3.4-11.9,3.4c-21.4,0-32.2-19.3-32.2-58c-0.1-9.6,1.2-19.3,3.7-28.6c2.5-8.7,6.3-15.8,11.5-21.1
	c5.1-5.3,12.2-8.2,19.5-8c4.1,0,8.2,0.7,12,2.2c3.7,1.3,7.1,3.3,9.9,6c3.9,3.1,6.9,7.3,8.7,12c2,5.9,3.3,12.1,3.8,18.4h3.9
	c0-19.5,0.2-33,0.7-40.6h-3.8c-0.2,2.6-0.7,5.2-1.6,7.7c-0.7,1.6-1.6,2.4-2.7,2.4c-1.3-0.2-2.4-0.7-3.4-1.6c-4.3-3.3-9-6-14-8.1
	C299.7,0.9,293.9,0,287,0c-11.7,0-22.2,2.6-31.4,7.9C246.5,13,239,20.7,234.1,30c-5.2,9.5-7.7,20.5-7.7,33c0,12.7,2.3,23.5,6.8,32.5
	c4.4,8.9,11.5,16.1,20.3,20.7c8.9,4.8,19.9,7.2,32.7,7.2c8.6,0,17.8-2.8,27.5-8.4c4.2-2.3,7.2-3.5,9.1-3.5c1.5,0,2.6,1,3.4,3
	C327,116.6,327.5,118.8,327.6,121L327.6,121L327.6,121z M408.9,0c-11.5,0-21.8,2.6-30.8,7.9c-9,5.2-16.3,12.9-21,22.1
	c-5,9.5-7.5,20.4-7.5,32.7c0,12.6,2.4,23.5,7.3,32.6c4.6,8.9,11.9,16.2,20.7,20.9c8.9,4.8,19.3,7.2,31.1,7.2
	c11.5,0,21.7-2.6,30.7-7.9c9-5.2,16.3-12.9,21.1-22.1c5-9.5,7.6-20.4,7.6-32.7c0-12.6-2.5-23.5-7.4-32.6
	c-4.7-8.9-11.9-16.2-20.7-20.9C431,2.4,420.6,0,408.9,0L408.9,0L408.9,0z M408.2,3c5.9,0,11.3,2.4,16.2,7.2
	c4.9,4.8,8.7,11.6,11.6,20.5c2.8,8.9,4.3,19.1,4.3,30.6c0.2,10.3-1.1,20.7-3.8,30.6c-2.5,8.9-6.1,15.9-10.8,20.9
	c-4.7,5-10.1,7.5-16.2,7.5c-5.9,0-11.3-2.4-16.2-7.2c-4.9-4.8-8.7-11.6-11.5-20.5c-2.8-8.8-4.3-19.1-4.3-30.7
	c-0.2-10.3,1.1-20.7,3.8-30.6c2.5-8.9,6.1-15.9,10.8-20.9S402,3,408.2,3L408.2,3L408.2,3z M85.7,141h-3.6v42.9h3.6V141z M129.3,141
	h-3.6v36.7L101,141h-3.6v42.9h3.6v-36.7l24.6,36.7h3.6L129.3,141L129.3,141z M168.4,141h-33v3.1h14.7v39.8h3.6v-39.8h14.7V141z
	 M199,160.2h-20v-16.2h22.9V141h-26.5v42.9H202v-3.1h-23v-17.5h20V160.2z M236,183.8h3.9v-0.4l-10.7-18.2c1.3-0.4,2.5-0.9,3.6-1.7
	c1.1-0.7,2-1.6,2.8-2.6c0.8-1,1.4-2.2,1.8-3.4c0.4-1.3,0.7-2.6,0.6-4c0-1.9-0.3-3.7-1-5.4c-0.6-1.5-1.6-2.9-2.9-4
	c-1.3-1.1-2.9-1.9-4.6-2.4c-2-0.6-4-0.9-6-0.8h-13.9v42.9h3.7V166h12.5L236,183.8z M213.2,144.1h10.3c1.6,0,3.2,0.2,4.7,0.7
	c1.3,0.4,2.4,1,3.4,1.9c0.9,0.8,1.6,1.8,2.1,3c0.5,1.3,0.7,2.6,0.7,4c0,1.2-0.2,2.4-0.6,3.5c-0.4,1.1-1.1,2.1-1.9,3
	c-0.9,0.9-2,1.6-3.2,2c-1.4,0.5-2.9,0.8-4.4,0.8h-11.1L213.2,144.1L213.2,144.1z M275.4,183.8h3.8L263,141h-3.4l-16.2,42.9h3.8
	l4.4-12H271L275.4,183.8z M261.3,145.4l8.6,23.3h-17.2L261.3,145.4z M310.8,141h-33v3.1h14.7v39.8h3.6v-39.8h14.7L310.8,141
	L310.8,141z M322.1,141h-3.6v42.9h3.6V141z M333.2,141h-3.9l16,42.9h3.5l16-42.9h-4l-13.5,37.6l-0.3,0.9l-0.2-0.9L333.2,141z
	 M402.2,160.1c0-2.8-0.4-5.5-1.2-8.2c-0.7-2.3-1.8-4.4-3.4-6.2c-1.4-1.7-3.2-3.1-5.3-4c-2.2-1-4.5-1.4-6.9-1.4
	c-2.4,0-4.7,0.4-6.8,1.4c-2,0.9-3.8,2.3-5.3,4c-1.5,1.8-2.7,4-3.4,6.2c-0.8,2.6-1.2,5.4-1.2,8.2v4.6c0,2.8,0.4,5.5,1.2,8.1
	c0.7,2.3,1.9,4.4,3.4,6.2c1.4,1.7,3.3,3,5.3,4c2.2,1,4.5,1.4,6.8,1.4c2.4,0,4.7-0.4,6.9-1.4c2-0.9,3.8-2.3,5.3-4
	c1.5-1.8,2.6-3.9,3.3-6.2c0.8-2.6,1.2-5.4,1.2-8.1L402.2,160.1L402.2,160.1z M398.6,164.7c0,2.3-0.3,4.6-0.9,6.9
	c-0.5,1.9-1.4,3.7-2.5,5.2c-1.1,1.4-2.5,2.5-4.1,3.3c-1.7,0.8-3.6,1.2-5.5,1.1c-1.9,0-3.7-0.4-5.5-1.1c-1.6-0.8-3-1.9-4.1-3.3
	c-1.2-1.6-2.1-3.3-2.6-5.2c-0.6-2.2-0.9-4.6-0.9-6.9v-4.7c0-2.3,0.3-4.6,0.9-6.9c0.5-1.9,1.4-3.6,2.6-5.2c1.1-1.4,2.5-2.5,4.1-3.3
	c1.7-0.8,3.6-1.2,5.5-1.2c1.9,0,3.8,0.4,5.5,1.2c1.6,0.8,3,1.9,4.1,3.3c1.2,1.5,2.1,3.3,2.6,5.2c0.6,2.2,0.9,4.5,0.9,6.9
	L398.6,164.7L398.6,164.7z"/>
</svg>
