<?xml version="1.0" encoding="utf-8"?>
<!-- Generator: Adobe Illustrator 18.1.1, SVG Export Plug-In . SVG Version: 6.00 Build 0)  -->
<svg version="1.1" id="Layer_1" xmlns="http://www.w3.org/2000/svg" xmlns:xlink="http://www.w3.org/1999/xlink" x="0px" y="0px"
	 viewBox="217.6 348.9 160 144" enable-background="new 217.6 348.9 160 144" xml:space="preserve">
<g>
	<circle cx="307.6" cy="485.5" r="6.9"/>
	<circle cx="307.6" cy="469.3" r="6.9"/>
	<circle cx="305.6" cy="451.3" r="6.9"/>
	<circle cx="305.6" cy="431.3" r="6.9"/>
	<path d="M313.1,412.1l-3.5-3.5c-0.4-0.4-0.9-0.4-1.3,0c-0.4,0.4-0.4,0.9,0,1.3l2,2h-7.7c-0.5,0-0.9,0.4-0.9,0.9
		c0,0.5,0.4,0.9,0.9,0.9h7.7l-2,2c-0.4,0.4-0.4,0.9,0,1.3c0.4,0.4,0.9,0.4,1.3,0l3.5-3.5c0.2-0.2,0.3-0.4,0.3-0.6
		C313.4,412.5,313.3,412.2,313.1,412.1L313.1,412.1z M302,395.9l3.5-3.5c0.4-0.4,0.9-0.4,1.3,0s0.4,0.9,0,1.3l-2,2h7.7
		c0.5,0,0.9,0.4,0.9,0.9c0,0.5-0.4,0.9-0.9,0.9h-7.7l2,2c0.4,0.4,0.4,0.9,0,1.3c-0.4,0.4-0.9,0.4-1.3,0l-3.5-3.6
		c-0.2-0.2-0.3-0.4-0.3-0.6C301.8,396.3,301.9,396,302,395.9z M304.9,384.1l-3.5-3.5c-0.4-0.4-0.4-0.9,0-1.3c0.4-0.4,0.9-0.4,1.3,0
		l2,2v-7.7c0-0.5,0.4-0.9,0.9-0.9c0.5,0,0.9,0.4,0.9,0.9v7.6l2-2c0.4-0.4,0.9-0.4,1.3,0c0.4,0.4,0.4,0.9,0,1.3l-3.5,3.5
		c-0.2,0.2-0.4,0.3-0.6,0.3C305.3,384.3,305.1,384.3,304.9,384.1L304.9,384.1z M306.2,353.1l3.5,3.5c0.4,0.4,0.4,0.9,0,1.3
		c-0.4,0.4-0.9,0.4-1.3,0l-2-2v7.7c0,0.5-0.4,0.9-0.9,0.9c-0.5,0-0.9-0.4-0.9-0.9v-7.7l-2,2c-0.4,0.4-0.9,0.4-1.3,0
		c-0.4-0.4-0.4-0.9,0-1.3l3.5-3.5c0.2-0.2,0.4-0.3,0.6-0.3C305.8,352.8,306,352.9,306.2,353.1L306.2,353.1z"/>
	<circle cx="321.8" cy="451.3" r="6.9"/>
	<circle cx="321.8" cy="431.3" r="6.9"/>
	<path fill="#FFFFFF" d="M325.8,431.7l-3.3-3.3c-0.4-0.4-1.1-0.4-1.5,0l-3.3,3.3c-0.4,0.4-0.4,1.1,0,1.5s1.1,0.4,1.5,0l2.5-2.5
		l2.5,2.5c0.2,0.2,0.5,0.3,0.7,0.3c0.2,0,0.5-0.1,0.7-0.3C326.2,432.9,326.2,432.2,325.8,431.7L325.8,431.7z M325.8,451.4l-3.3,3.3
		c-0.4,0.4-1.1,0.4-1.5,0l-3.3-3.3c-0.4-0.4-0.4-1.1,0-1.5s1.1-0.4,1.5,0l2.5,2.5l2.5-2.5c0.2-0.2,0.5-0.3,0.7-0.3
		c0.2,0,0.5,0.1,0.7,0.3C326.2,450.3,326.2,451,325.8,451.4L325.8,451.4z"/>
	<circle cx="327.8" cy="469.3" r="6.9"/>
	<path fill="#FFFFFF" d="M327.7,473.3l-3.3-3.3c-0.4-0.4-0.4-1.1,0-1.5l3.3-3.3c0.4-0.4,1.1-0.4,1.5,0s0.4,1.1,0,1.5l-2.5,2.5
		l2.5,2.5c0.2,0.2,0.3,0.5,0.3,0.7s-0.1,0.5-0.3,0.7C328.7,473.7,328.1,473.7,327.7,473.3L327.7,473.3z"/>
	<circle cx="327.8" cy="485.5" r="6.9"/>
	<path fill="#FFFFFF" d="M327.9,489.5l3.3-3.3c0.4-0.4,0.4-1.1,0-1.5l-3.3-3.3c-0.4-0.4-1.1-0.4-1.5,0c-0.4,0.4-0.4,1.1,0,1.5
		l2.5,2.5l-2.5,2.5c-0.2,0.2-0.3,0.5-0.3,0.7s0.1,0.5,0.3,0.7C326.8,489.9,327.5,489.9,327.9,489.5L327.9,489.5z"/>
	<path d="M349,473.3l-3.3-3.3c-0.4-0.4-0.4-1.1,0-1.5l3.3-3.3c0.4-0.4,1.1-0.4,1.5,0c0.4,0.4,0.4,1.1,0,1.5l-2.5,2.5l2.5,2.5
		c0.2,0.2,0.3,0.5,0.3,0.7s-0.1,0.5-0.3,0.7C350.1,473.7,349.4,473.7,349,473.3L349,473.3z M341.7,450.4l-3.3,3.3
		c-0.4,0.4-1.1,0.4-1.5,0l-3.3-3.3c-0.4-0.4-0.4-1.1,0-1.5s1.1-0.4,1.5,0l2.5,2.5l2.5-2.5c0.2-0.2,0.5-0.3,0.7-0.3
		c0.2,0,0.5,0.1,0.7,0.3C342.1,449.3,342.1,450,341.7,450.4L341.7,450.4z M333.7,431.3l3.3-3.3c0.4-0.4,1.1-0.4,1.5,0l3.2,3.3
		c0.4,0.4,0.4,1.1,0,1.5s-1.1,0.4-1.5,0l-2.5-2.5l-2.5,2.5c-0.2,0.2-0.5,0.3-0.7,0.3c-0.2,0-0.5-0.1-0.7-0.3
		C333.3,432.3,333.3,431.6,333.7,431.3L333.7,431.3z M347.2,489.5l3.3-3.3c0.4-0.4,0.4-1.1,0-1.5l-3.3-3.3c-0.4-0.4-1.1-0.4-1.5,0
		c-0.4,0.4-0.4,1.1,0,1.5l2.5,2.5l-2.5,2.5c-0.2,0.2-0.3,0.5-0.3,0.7c0,0.2,0.1,0.5,0.3,0.7C346.1,489.9,346.8,489.9,347.2,489.5
		L347.2,489.5z M325.8,362.7c-0.3,0-0.5-0.1-0.7-0.3l-3.5-3.9l-3.8,3.9c-0.4,0.4-1,0.4-1.4,0s-0.4-1,0-1.4l4.6-4.7
		c0.2-0.2,0.5-0.3,0.7-0.3c0.3,0,0.5,0.1,0.7,0.3l4.2,4.7c0.4,0.4,0.3,1-0.1,1.4C326.3,362.6,326,362.7,325.8,362.7L325.8,362.7z
		 M317,375.8c0.3,0,0.5,0.1,0.7,0.3l3.5,3.9l3.8-3.9c0.4-0.4,1-0.4,1.4,0s0.4,1,0,1.4l-4.6,4.7c-0.2,0.2-0.5,0.3-0.7,0.3
		c-0.3,0-0.5-0.1-0.7-0.3l-4.2-4.7c-0.4-0.4-0.3-1,0.1-1.4C316.6,375.9,316.8,375.8,317,375.8L317,375.8z M331.3,392.9
		c0,0.3-0.1,0.5-0.3,0.7l-3.9,3.5l3.9,3.8c0.4,0.4,0.4,1,0,1.4s-1,0.4-1.4,0l-4.7-4.6c-0.2-0.2-0.3-0.5-0.3-0.7
		c0-0.3,0.1-0.5,0.3-0.7l4.7-4.2c0.4-0.4,1-0.3,1.4,0.1C331.2,392.5,331.3,392.7,331.3,392.9z M324.6,417.7c0-0.3,0.1-0.5,0.3-0.7
		l3.9-3.5l-3.9-3.8c-0.4-0.4-0.4-1,0-1.4s1-0.4,1.4,0l4.7,4.6c0.2,0.2,0.3,0.5,0.3,0.7c0,0.3-0.1,0.5-0.3,0.7l-4.7,4.2
		c-0.4,0.4-1,0.3-1.4-0.1C324.7,418.2,324.6,418,324.6,417.7z M353.5,412.4l-4.7-4.3c-0.4-0.4-0.8-0.3-0.8,0.3v2.4h-4.9
		c-0.6,0-1.1,0.5-1.1,1v2.6c0,0.6,0.5,1,1.1,1h4.9v2.4c0,0.6,0.3,0.7,0.8,0.3l4.7-4.3C353.9,413.5,353.9,412.8,353.5,412.4
		L353.5,412.4z M342.3,396.8l4.7-4.3c0.4-0.4,0.8-0.3,0.8,0.3v2.4h4.9c0.6,0,1.1,0.5,1.1,1v2.6c0,0.6-0.5,1-1.1,1h-4.9v2.4
		c0,0.6-0.3,0.7-0.8,0.3l-4.7-4.3C341.9,397.8,341.9,397.2,342.3,396.8z M336.9,384.7l-4.3-4.7c-0.4-0.4-0.3-0.8,0.3-0.8h2.4v-4.9
		c0-0.6,0.5-1.1,1-1.1h2.6c0.6,0,1,0.5,1,1.1v4.9h2.4c0.6,0,0.7,0.3,0.3,0.8l-4.3,4.7C337.9,385.2,337.3,385.2,336.9,384.7z
		 M336.9,353.8l-4.3,4.7c-0.4,0.4-0.3,0.8,0.3,0.8h2.4v4.9c0,0.6,0.5,1.1,1,1.1h2.6c0.6,0,1-0.5,1-1.1v-4.9h2.4
		c0.6,0,0.7-0.3,0.3-0.8l-4.3-4.7C337.9,353.4,337.3,353.4,336.9,353.8z M348.9,361.9h9.4c0.6,0,0.7-0.3,0.3-0.8l-4.3-4.7
		c-0.4-0.4-1-0.4-1.4,0l-4.3,4.7C348.2,361.5,348.3,361.9,348.9,361.9z M358.3,376.4h-9.4c-0.6,0-0.7,0.3-0.3,0.8l4.3,4.7
		c0.4,0.4,1,0.4,1.4,0l4.3-4.7C359,376.8,358.9,376.4,358.3,376.4z M370.5,401.9v-9.4c0-0.6-0.3-0.7-0.8-0.3l-4.7,4.3
		c-0.4,0.4-0.4,1,0,1.4l4.7,4.3C370.3,402.6,370.5,402.5,370.5,401.9z M364.7,408.4v9.4c0,0.6,0.3,0.7,0.8,0.3l4.7-4.3
		c0.4-0.4,0.4-1,0-1.4l-4.7-4.3C365.1,407.8,364.7,407.9,364.7,408.4L364.7,408.4z"/>
	<circle fill="#FFFFFF" cx="227.5" cy="485.5" r="6.9"/>
	<circle fill="#FFFFFF" cx="227.5" cy="469.3" r="6.9"/>
	<circle fill="#FFFFFF" cx="225.6" cy="451.3" r="6.9"/>
	<circle fill="#FFFFFF" cx="225.6" cy="431.3" r="6.9"/>
	<path fill="#FFFFFF" d="M233.2,412.1l-3.5-3.5c-0.4-0.4-0.9-0.4-1.3,0c-0.4,0.4-0.4,0.9,0,1.3l2,2h-7.8c-0.5-0.1-0.9,0.3-0.9,0.8
		s0.4,0.9,0.9,0.9h7.7l-2,2c-0.4,0.4-0.4,0.9,0,1.3c0.4,0.4,0.9,0.4,1.3,0l3.5-3.5c0.2-0.2,0.3-0.4,0.3-0.6
		C233.4,412.5,233.2,412.2,233.2,412.1L233.2,412.1z M222.1,395.9l3.5-3.5c0.4-0.4,0.9-0.4,1.3,0c0.4,0.4,0.4,0.9,0,1.3l-2,2h7.7
		c0.5,0,0.9,0.4,0.9,0.9c0,0.5-0.4,0.9-0.9,0.9h-7.7l2,2c0.4,0.4,0.4,0.9,0,1.3c-0.4,0.4-0.9,0.4-1.3,0l-3.5-3.6
		c-0.2-0.2-0.3-0.4-0.3-0.6C221.7,396.3,221.8,396,222.1,395.9z M225,384.1l-3.5-3.5c-0.4-0.4-0.4-0.9,0-1.3s0.9-0.4,1.3,0l2,2v-7.7
		c0-0.5,0.4-0.9,0.9-0.9c0.5,0,0.9,0.4,0.9,0.9v7.6l2-2c0.4-0.4,0.9-0.4,1.3,0c0.4,0.4,0.4,0.9,0,1.3l-3.5,3.5
		c-0.2,0.2-0.4,0.3-0.6,0.3C225.3,384.3,225,384.3,225,384.1L225,384.1z M226.3,353.1l3.5,3.5c0.4,0.4,0.4,0.9,0,1.3
		c-0.4,0.4-0.9,0.4-1.3,0l-2-2v7.7c0,0.5-0.4,0.9-0.9,0.9c-0.5,0-0.9-0.4-0.9-0.9v-7.7l-2,2c-0.4,0.4-0.9,0.4-1.3,0
		c-0.4-0.4-0.4-0.9,0-1.3l3.5-3.5c0.2-0.2,0.4-0.3,0.6-0.3C225.8,352.8,226,352.9,226.3,353.1z"/>
	<circle fill="#FFFFFF" cx="241.8" cy="451.3" r="6.9"/>
	<circle fill="#FFFFFF" cx="241.8" cy="431.3" r="6.9"/>
	<path d="M245.8,431.7l-3.3-3.3c-0.4-0.4-1.1-0.4-1.5,0l-3.3,3.3c-0.4,0.4-0.4,1.1,0,1.5s1.1,0.4,1.5,0l2.5-2.5l2.5,2.5
		c0.2,0.2,0.5,0.3,0.7,0.3s0.5-0.1,0.7-0.3C246.3,432.9,246.3,432.2,245.8,431.7z M245.8,451.4l-3.3,3.3c-0.4,0.4-1.1,0.4-1.5,0
		l-3.3-3.3c-0.4-0.4-0.4-1.1,0-1.5s1.1-0.4,1.5,0l2.5,2.5l2.5-2.5c0.2-0.2,0.5-0.3,0.7-0.3s0.5,0.1,0.7,0.3
		C246.3,450.3,246.3,451,245.8,451.4L245.8,451.4z"/>
	<circle fill="#FFFFFF" cx="247.8" cy="469.3" r="6.9"/>
	<path d="M247.7,473.3l-3.3-3.3c-0.4-0.4-0.4-1.1,0-1.5l3.3-3.3c0.4-0.4,1.1-0.4,1.5,0s0.4,1.1,0,1.5l-2.5,2.6l2.5,2.5
		c0.2,0.2,0.3,0.5,0.3,0.7c0,0.2-0.1,0.5-0.3,0.7C248.8,473.7,248.1,473.7,247.7,473.3L247.7,473.3z"/>
	<circle fill="#FFFFFF" cx="247.8" cy="485.5" r="6.9"/>
	<path d="M247.9,489.5l3.3-3.3c0.4-0.4,0.4-1.1,0-1.5l-3.3-3.3c-0.4-0.4-1.1-0.4-1.5,0s-0.4,1.1,0,1.5l2.5,2.5l-2.5,2.5
		c-0.2,0.2-0.3,0.5-0.3,0.7c0,0.2,0.1,0.5,0.3,0.7C246.8,489.9,247.5,489.9,247.9,489.5L247.9,489.5z"/>
	<path fill="#FFFFFF" d="M269,473.3l-3.3-3.3c-0.4-0.4-0.4-1.1,0-1.5l3.3-3.3c0.4-0.4,1.1-0.4,1.5,0s0.4,1.1,0,1.5l-2.5,2.5l2.5,2.5
		c0.2,0.2,0.3,0.5,0.3,0.7s-0.1,0.5-0.3,0.7C270.1,473.7,269.5,473.7,269,473.3L269,473.3z M261.8,450.4l-3.3,3.3
		c-0.4,0.4-1.1,0.4-1.5,0l-3.3-3.3c-0.4-0.4-0.4-1.1,0-1.5c0.4-0.4,1.1-0.4,1.5,0l2.5,2.5l2.5-2.5c0.2-0.2,0.5-0.3,0.7-0.3
		c0.2,0,0.5,0.1,0.7,0.3C262.2,449.3,262.2,450,261.8,450.4L261.8,450.4z M253.7,431.3l3.3-3.3c0.4-0.4,1.1-0.4,1.5,0l3.3,3.3
		c0.4,0.4,0.4,1.1,0,1.5c-0.4,0.4-1.1,0.4-1.5,0l-2.6-2.6l-2.5,2.5c-0.2,0.2-0.5,0.3-0.7,0.3s-0.5-0.1-0.7-0.3
		C253.3,432.3,253.3,431.6,253.7,431.3z M267.3,489.5l3.3-3.3c0.4-0.4,0.4-1.1,0-1.5l-3.3-3.3c-0.4-0.4-1.1-0.4-1.5,0
		s-0.4,1.1,0,1.5l2.5,2.5l-2.5,2.5c-0.2,0.2-0.3,0.5-0.3,0.7c0,0.2,0.1,0.5,0.3,0.7C266.2,489.9,266.8,489.9,267.3,489.5
		L267.3,489.5z M245.8,362.7c-0.3,0-0.5-0.1-0.7-0.3l-3.5-3.9l-3.8,3.9c-0.4,0.4-1,0.4-1.4,0c-0.4-0.4-0.4-1,0-1.4l4.6-4.7
		c0.2-0.2,0.5-0.3,0.7-0.3c0.3,0,0.5,0.1,0.7,0.3l4.2,4.7c0.4,0.4,0.3,1-0.1,1.4C246.3,362.6,246.1,362.7,245.8,362.7z M237.1,375.8
		c0.3,0,0.5,0.1,0.7,0.3l3.5,3.9l3.8-3.9c0.4-0.4,1-0.4,1.4,0c0.4,0.4,0.4,1,0,1.4l-4.5,4.7c-0.2,0.2-0.5,0.3-0.7,0.3
		c-0.3,0-0.5-0.1-0.7-0.3l-4.2-4.7c-0.4-0.4-0.3-1,0.1-1.4C236.6,375.9,236.8,375.8,237.1,375.8L237.1,375.8z M251.3,392.9
		c0,0.3-0.1,0.5-0.3,0.7l-3.9,3.5l3.9,3.8c0.4,0.4,0.4,1,0,1.4c-0.4,0.4-1,0.4-1.4,0l-4.7-4.6c-0.2-0.2-0.3-0.5-0.3-0.7
		c0-0.3,0.1-0.5,0.3-0.7l4.7-4.2c0.4-0.4,1-0.3,1.4,0.1C251.2,392.5,251.3,392.7,251.3,392.9L251.3,392.9z M244.6,417.7
		c0-0.3,0.1-0.5,0.3-0.7l3.9-3.5l-3.9-3.8c-0.4-0.4-0.4-1,0-1.4c0.4-0.4,1-0.4,1.4,0l4.7,4.6c0.2,0.2,0.3,0.5,0.3,0.7
		c0,0.3-0.1,0.5-0.3,0.7l-4.7,4.2c-0.4,0.4-1,0.3-1.4-0.1C244.6,418.2,244.6,418,244.6,417.7z M273.5,412.4l-4.7-4.2
		c-0.4-0.4-0.8-0.3-0.8,0.3v2.4h-4.9c-0.6,0-1.1,0.5-1.1,1v2.6c0,0.6,0.5,1,1.1,1h4.9v2.4c0,0.6,0.3,0.7,0.8,0.3l4.7-4.3
		C273.9,413.5,273.9,412.8,273.5,412.4L273.5,412.4z M262.4,396.8l4.7-4.3c0.4-0.4,0.8-0.3,0.8,0.3v2.4h4.8c0.6,0,1.1,0.5,1.1,1v2.6
		c0,0.6-0.5,1-1.1,1h-4.9v2.4c0,0.6-0.3,0.7-0.8,0.3l-4.6-4.3C261.9,397.8,261.9,397.2,262.4,396.8z M256.9,384.7l-4.3-4.7
		c-0.4-0.4-0.3-0.8,0.3-0.8h2.4v-4.9c0-0.6,0.5-1.1,1-1.1h2.6c0.6,0,1,0.5,1,1.1v4.9h2.4c0.6,0,0.7,0.3,0.3,0.8l-4.3,4.7
		C257.9,385.2,257.3,385.2,256.9,384.7z M256.9,353.8l-4.3,4.7c-0.4,0.4-0.3,0.8,0.3,0.8h2.4v4.9c0,0.6,0.5,1.1,1,1.1h2.6
		c0.6,0,1-0.5,1-1.1v-4.9h2.4c0.6,0,0.7-0.3,0.3-0.8l-4.3-4.7C257.9,353.4,257.3,353.4,256.9,353.8z M268.9,361.9h9.4
		c0.6,0,0.7-0.3,0.3-0.8l-4.3-4.7c-0.4-0.4-1-0.4-1.4,0l-4.3,4.7C268.3,361.5,268.4,361.9,268.9,361.9L268.9,361.9z M278.4,376.4
		H269c-0.6,0-0.7,0.3-0.3,0.8l4.3,4.7c0.4,0.4,1,0.4,1.4,0l4.3-4.7C279,376.8,278.9,376.4,278.4,376.4z M290.6,401.9v-9.4
		c0-0.6-0.3-0.7-0.8-0.3l-4.7,4.3c-0.4,0.4-0.4,1,0,1.4l4.7,4.3C290.2,402.6,290.6,402.5,290.6,401.9L290.6,401.9z M284.7,408.4v9.4
		c0,0.6,0.3,0.7,0.8,0.3l4.7-4.3c0.4-0.4,0.4-1,0-1.4l-4.7-4.2C285.1,407.8,284.7,407.9,284.7,408.4z"/>
	<path fill="#202020" d="M226.4,447.4v5.5l2-2l1.2,1.2l-4,4.1l-4.1-4.1l1.2-1.2l2,2v-5.5 M226.4,435.5v-5.5l2,2l1.2-1.2l-4-4.1
		l-4.1,4.1l1.2,1.2l2-2v5.5 M232,470.1h-5.5l2,2l-1.2,1.2l-4.1-4l4.1-4.1l1.2,1.2l-2,2h5.5 M223.2,486.3h5.5l-2,2l1.2,1.2l4.1-4
		l-4.1-4.1l-1.2,1.2l2,2h-5.5"/>
	<path fill="#FFFFFF" d="M306.4,447.4v5.5l2-2l1.2,1.2l-4,4.1l-4.1-4.1l1.2-1.2l2,2v-5.5 M306.4,435.5v-5.5l2,2l1.2-1.2l-4-4.1
		l-4.1,4.1l1.2,1.2l2-2v5.5 M312,470.1h-5.5l2,2l-1.2,1.2l-4.1-4l4.1-4.1l1.2,1.2l-2,2h5.5 M303.2,486.3h5.5l-2,2l1.2,1.2l4.1-4
		l-4.1-4.1l-1.2,1.2l2,2h-5.5"/>
</g>
</svg>
