<?xml version="1.0" encoding="utf-8"?>
<!-- Generator: Adobe Illustrator 21.0.0, SVG Export Plug-In . SVG Version: 6.00 Build 0)  -->
<svg version="1.1" id="Layer_1" xmlns="http://www.w3.org/2000/svg" xmlns:xlink="http://www.w3.org/1999/xlink" x="0px" y="0px"
	 width="464.2px" height="190.3px" viewBox="0 0 464.2 190.3" style="enable-background:new 0 0 464.2 190.3;" xml:space="preserve"
	>
<style type="text/css">
	.st0{fill:#FFFFFF;}
	.st1{fill:#B4FF00;}
</style>
<g>
	<polygon class="st0" points="0.7,145.3 7,145.3 7,185.8 0.7,185.8 0.7,189.7 18,189.7 18,185.8 11.8,185.8 11.8,145.3 18,145.3 
		18,141.4 0.7,141.4 	"/>
	<polygon class="st0" points="30.5,145.3 30.5,145.3 30.5,145.3 	"/>
	<polygon class="st0" points="60.4,145.3 66.6,145.3 66.6,182.4 66.5,182.4 42.8,141.4 30.5,141.4 30.5,145.3 36.8,145.3 
		36.8,185.8 30.5,185.8 30.5,189.7 47.8,189.7 47.8,185.8 41.5,185.8 41.5,148.2 41.7,148.2 65.8,189.7 71.4,189.7 71.4,145.3 
		77.7,145.3 77.7,141.4 60.4,141.4 	"/>
	<polygon class="st0" points="88.5,153.3 92.8,153.3 92.8,145.6 105.2,145.6 105.2,185.8 98.9,185.8 98.9,189.7 116.2,189.7 
		116.2,185.8 110,185.8 110,145.6 122.2,145.6 122.2,153.3 126.5,153.3 126.5,141.4 88.5,141.4 	"/>
	<polygon class="st0" points="169.1,185.5 149,185.5 149,167.9 167.9,167.9 167.9,163.7 149,163.7 149,145.6 168,145.6 168,151.4 
		172.4,151.4 172.4,141.4 138,141.4 138,145.3 144.3,145.3 144.3,185.8 138,185.8 138,189.7 173.5,189.7 173.5,179.4 169.1,179.4 	
		"/>
	<polygon class="st0" points="172.4,151.4 172.4,151.4 172.4,151.4 	"/>
	<path class="st0" d="M211,170.6c8.6-0.1,14-2.3,14-14.7c0-12.9-5.7-14.6-14.8-14.6h-24.3v3.9h6.3v40.5h-6.3v3.9h17.3v-3.9H197
		v-15.2h8.9l13,19.1h7.6v-3.9h-4.6L211,170.6z M197,166.5L197,166.5v-21h13.5c6.1,0,9.7,1.2,9.7,10.3s-3.7,10.6-9.7,10.6H197z"/>
	<path class="st0" d="M262.7,141.4h-6l-16.4,44.4h-4.9v3.9h15.5v-3.9h-5.5l4.2-11.7h20.1l4.3,11.7h-5.5v3.9h15.4h0v-3.9H279
		L262.7,141.4z M251.1,169.8l8.5-23.5h0.1l8.5,23.5H251.1z"/>
	<polygon class="st0" points="288.5,153.3 292.8,153.3 292.8,145.6 305.2,145.6 305.2,185.8 298.9,185.8 298.9,189.7 316.2,189.7 
		316.2,185.8 309.9,185.8 309.9,145.6 322.2,145.6 322.2,153.3 326.5,153.3 326.5,141.4 288.5,141.4 	"/>
	<polygon class="st0" points="338,145.3 344.2,145.3 344.2,185.8 338,185.8 338,189.7 355.3,189.7 355.3,185.8 349,185.8 349,145.3 
		355.3,145.3 355.3,141.4 338,141.4 	"/>
	<polygon class="st0" points="396.5,145.3 402.1,145.3 388.8,183.6 388.6,183.6 375.4,145.3 380.9,145.3 380.9,141.4 365.3,141.4 
		365.3,145.3 370.2,145.3 386.1,189.7 391.3,189.7 407.2,145.3 412.1,145.3 412.1,141.4 396.5,141.4 	"/>
	<path class="st0" d="M442.9,140.7c-20.2,0-20.8,12-20.8,19v11.5c0,7.1,0.5,19,20.8,19c20.1,0,20.7-12,20.7-19.1v-11.4v0
		C463.6,152.8,463,140.7,442.9,140.7z M458.9,171.2c0,8.3-2,14.9-15.9,14.9c-13.3,0-16-6.3-16-14.8v-11.5c0-8.4,2.1-14.8,16-14.8
		c13.5,0,15.8,6.2,15.9,14.9V171.2z"/>
</g>
<path class="st1" d="M61.3,86.5V23.7v0h13.1V1.5h-59v22.2h14.1v58.5c0,11.2-10.8,12-29.6,12.5v25.1C29.6,119.1,61.3,117.1,61.3,86.5
	z"/>
<path class="st1" d="M150.5,119.7c50.9,0,52.2-30.1,52.2-46.8V46.8l0,0c0-16.7-1.3-46.8-52.2-46.8S98.3,29.9,98.3,46.6v26.4
	C98.3,90,99.6,119.7,150.5,119.7z M130.3,46.6c0-7.7,0.5-21.5,20.2-21.5s20.2,14,20.2,21.7v26.1c0,7.7-0.5,21.7-20.2,21.7
	S130.3,81,130.3,73.1V46.6z"/>
<path class="st1" d="M278.8,75.1h21.5V91c-4.3,2.2-9.1,3.4-14,3.4c-23,0-23-13.6-23-20.2V45.5c0-9,0-20.4,26.6-20.4
	c1.9,0,3.7,0.2,5.6,0.5v12.5v0h27.6V3c-11.5-2.1-25.8-3-38.9-3c-50.8,0-52.6,31.2-52.6,46.3v27.1c0,15.1,1.5,46.3,52.2,46.3
	c21.4,0,35.8-5.7,47.6-14.1V51.2h-52.7V75.1z"/>
<path class="st1" d="M412,0c-50.9,0-52.2,29.9-52.2,46.6v26.4c0,16.9,1.3,46.6,52.2,46.6s52.2-30.1,52.2-46.8V46.8v0
	C464.2,30.1,462.9,0,412,0z M432.2,72.9c0,7.7-0.5,21.7-20.2,21.7S391.8,81,391.8,73.1V46.6c0-7.7,0.5-21.5,20.2-21.5
	s20.2,14,20.2,21.7V72.9z"/>
</svg>
